<svg width="22" height="22" viewBox="0 0 22 22" fill="none" xmlns="http://www.w3.org/2000/svg">
<path d="M22 11C22 4.92487 17.0751 0 11 0C4.92487 0 0 4.92487 0 11C0 17.0751 4.92487 22 11 22C17.0751 22 22 17.0751 22 11Z" fill="#5692D1"/>
<path d="M14.7979 15.4855C14.6645 15.4855 14.5341 15.4459 14.4233 15.3718C14.3124 15.2977 14.226 15.1924 14.175 15.0692C14.1239 14.9459 14.1106 14.8104 14.1366 14.6796C14.1626 14.5488 14.2268 14.4286 14.3211 14.3343C14.7595 13.896 15.1072 13.3755 15.3445 12.8028C15.5818 12.23 15.7039 11.6161 15.7039 10.9962C15.7039 10.3762 15.5818 9.76231 15.3445 9.18955C15.1072 8.61678 14.7595 8.09637 14.3211 7.65801C14.1982 7.53082 14.1303 7.36047 14.1318 7.18365C14.1333 7.00683 14.2043 6.8377 14.3293 6.71265C14.4543 6.58762 14.6235 6.5167 14.8003 6.51516C14.9771 6.51362 15.1474 6.5816 15.2746 6.70444C15.8382 7.26803 16.2854 7.93712 16.5903 8.6735C16.8953 9.40988 17.0523 10.1991 17.0523 10.9962C17.0523 11.7932 16.8953 12.5825 16.5903 13.3188C16.2854 14.0552 15.8382 14.7243 15.2746 15.2879C15.2122 15.3507 15.1379 15.4006 15.0561 15.4345C14.9742 15.4684 14.8865 15.4857 14.7979 15.4855Z" fill="white"/>
<path d="M7.1677 15.4886C6.98886 15.4886 6.81736 15.4175 6.69092 15.291C6.12732 14.7274 5.68024 14.0584 5.37522 13.322C5.0702 12.5856 4.91321 11.7964 4.91321 10.9993C4.91321 10.2023 5.0702 9.41302 5.37522 8.67665C5.68024 7.94027 6.12732 7.27118 6.69092 6.70759C6.75312 6.64318 6.82754 6.59181 6.90982 6.55645C6.9921 6.52112 7.08058 6.50251 7.17013 6.50173C7.25967 6.50096 7.34847 6.51802 7.43135 6.55193C7.51422 6.58584 7.58952 6.63592 7.65284 6.69923C7.71616 6.76255 7.76623 6.83785 7.80014 6.92072C7.83405 7.0036 7.85111 7.0924 7.85033 7.18194C7.84956 7.27148 7.83096 7.35998 7.7956 7.44226C7.76027 7.52454 7.7089 7.59895 7.64448 7.66116C7.20609 8.09951 6.85832 8.61993 6.62105 9.1927C6.3838 9.76546 6.26167 10.3794 6.26167 10.9993C6.26167 11.6193 6.3838 12.2332 6.62105 12.8059C6.85832 13.3787 7.20609 13.8991 7.64448 14.3375C7.73876 14.4318 7.80297 14.5519 7.82898 14.6827C7.85499 14.8135 7.84164 14.9491 7.7906 15.0723C7.73957 15.1955 7.65315 15.3008 7.54229 15.3749C7.43141 15.449 7.30106 15.4886 7.1677 15.4886Z" fill="white"/>
<path d="M17.1814 17.8722C17.0481 17.8722 16.9177 17.8326 16.8069 17.7585C16.6959 17.6844 16.6096 17.5791 16.5586 17.4559C16.5076 17.3327 16.4942 17.1971 16.5202 17.0663C16.5462 16.9355 16.6104 16.8153 16.7047 16.721C18.2222 15.2034 19.0747 13.1451 19.0747 10.999C19.0747 8.85277 18.2222 6.79449 16.7047 5.27687C16.5781 5.15033 16.507 4.97871 16.507 4.79975C16.507 4.6208 16.5781 4.44917 16.7047 4.32263C16.8312 4.19609 17.0028 4.125 17.1819 4.125C17.3607 4.125 17.5323 4.19609 17.659 4.32263C18.5357 5.19934 19.2313 6.24019 19.7058 7.38572C20.1803 8.53124 20.4245 9.75902 20.4245 10.999C20.4245 12.2389 20.1803 13.4667 19.7058 14.6122C19.2313 15.7577 18.5357 16.7986 17.659 17.6753C17.5963 17.7381 17.5219 17.7878 17.4399 17.8216C17.358 17.8554 17.2701 17.8726 17.1814 17.8722Z" fill="white"/>
<path d="M4.78391 17.8722C4.69525 17.8726 4.60739 17.8554 4.52544 17.8216C4.44348 17.7878 4.36903 17.7381 4.30646 17.6753C3.42965 16.7986 2.73413 15.7577 2.2596 14.6122C1.78507 13.4667 1.54083 12.2389 1.54083 10.999C1.54083 9.75902 1.78507 8.53124 2.2596 7.38572C2.73413 6.24019 3.42965 5.19934 4.30646 4.32263C4.433 4.19609 4.60461 4.125 4.78357 4.125C4.96253 4.125 5.13415 4.19609 5.26069 4.32263C5.38724 4.44917 5.45832 4.6208 5.45832 4.79975C5.45832 4.97871 5.38724 5.15033 5.26069 5.27687C3.74318 6.79449 2.89065 8.85277 2.89065 10.999C2.89065 13.1451 3.74318 15.2034 5.26069 16.721C5.35498 16.8153 5.41918 16.9355 5.44519 17.0663C5.47121 17.1971 5.45784 17.3327 5.40682 17.4559C5.35579 17.5791 5.26937 17.6844 5.15851 17.7585C5.04763 17.8326 4.91727 17.8722 4.78391 17.8722Z" fill="white"/>
<path d="M10.9827 13.2871C12.2484 13.2871 13.2744 12.2611 13.2744 10.9955C13.2744 9.72986 12.2484 8.70386 10.9827 8.70386C9.7171 8.70386 8.6911 9.72986 8.6911 10.9955C8.6911 12.2611 9.7171 13.2871 10.9827 13.2871Z" fill="white"/>
</svg>
