<svg width="17" height="17" viewBox="0 0 17 17" fill="none" xmlns="http://www.w3.org/2000/svg">
<path d="M8.012 0.11499C3.87671 0.11499 0.512024 3.47499 0.512024 7.61207C0.512024 11.749 3.87671 15.115 8.012 15.115C12.1473 15.115 15.512 11.749 15.512 7.61207C15.5141 7.45761 15.4544 7.30866 15.3459 7.19862C15.2375 7.08871 15.0896 7.02672 14.935 7.02672C14.7806 7.02672 14.6327 7.08871 14.5243 7.19862C14.4157 7.30866 14.3559 7.45762 14.3582 7.61207C14.3582 11.1251 11.5238 13.9669 8.01207 13.9669C4.50037 13.9669 1.66594 11.1253 1.66594 7.61207C1.66594 4.09903 4.50037 1.26345 8.01207 1.26345C9.12611 1.26345 10.2203 1.55988 11.1851 2.11721C11.3619 2.20283 11.5699 2.19276 11.7375 2.09051C11.9051 1.98825 12.0095 1.80789 12.0145 1.61158C12.0193 1.41525 11.9243 1.2298 11.762 1.11922C10.6219 0.460718 9.32854 0.11515 8.01203 0.11515L8.012 0.11499ZM14.7187 2.03882C14.572 2.04606 14.429 2.11222 14.3281 2.21917C12.3017 4.33999 10.3442 6.6237 8.35454 8.73613L5.51207 6.22908C5.2855 6.02765 4.89607 6.05047 4.69473 6.27712C4.49339 6.50378 4.51619 6.89336 4.74276 7.09478L8.01194 9.98052C8.23328 10.1751 8.60833 10.1582 8.81115 9.94442C10.9648 7.69035 13.0374 5.23757 15.1573 3.01865C15.5463 2.59283 15.197 2.02894 14.7186 2.03877L14.7187 2.03882Z" fill="#42B72A"/>
</svg>
