<svg width="14" height="10" viewBox="0 0 14 10" fill="none" xmlns="http://www.w3.org/2000/svg">
<path d="M9.76208 8.26217C9.66509 8.26215 9.57029 8.23337 9.48965 8.17948C9.40902 8.12559 9.34617 8.049 9.30906 7.95939C9.27194 7.86978 9.26223 7.77119 9.28115 7.67606C9.30006 7.58094 9.34676 7.49356 9.41533 7.42497C9.73417 7.10616 9.98708 6.72767 10.1596 6.31112C10.3322 5.89456 10.421 5.44809 10.421 4.99721C10.421 4.54633 10.3322 4.09986 10.1596 3.68331C9.98708 3.26675 9.73417 2.88827 9.41533 2.56946C9.32599 2.47696 9.27655 2.35307 9.27767 2.22447C9.27879 2.09588 9.33037 1.97287 9.4213 1.88193C9.51224 1.791 9.63525 1.73942 9.76384 1.7383C9.89244 1.73718 10.0163 1.78662 10.1088 1.87596C10.5187 2.28584 10.8439 2.77245 11.0657 3.308C11.2875 3.84355 11.4017 4.41754 11.4017 4.99721C11.4017 5.57688 11.2875 6.15088 11.0657 6.68643C10.8439 7.22197 10.5187 7.70858 10.1088 8.11847C10.0634 8.16417 10.0094 8.2004 9.94986 8.22507C9.89033 8.24973 9.82651 8.26235 9.76208 8.26217Z" fill="#5692D1"/>
<path d="M4.21287 8.26446C4.08281 8.26443 3.95808 8.21274 3.86612 8.12076C3.45623 7.71087 3.13108 7.22426 2.90925 6.68871C2.68742 6.15317 2.57324 5.57917 2.57324 4.9995C2.57324 4.41983 2.68742 3.84583 2.90925 3.31029C3.13108 2.77474 3.45623 2.28813 3.86612 1.87825C3.91136 1.8314 3.96548 1.79404 4.02532 1.76833C4.08516 1.74263 4.14951 1.7291 4.21464 1.72853C4.27976 1.72797 4.34434 1.74038 4.40462 1.76504C4.46489 1.7897 4.51965 1.82612 4.5657 1.87217C4.61175 1.91822 4.64817 1.97298 4.67283 2.03325C4.69749 2.09353 4.7099 2.15811 4.70933 2.22323C4.70877 2.28835 4.69524 2.35271 4.66953 2.41255C4.64383 2.47239 4.60647 2.52651 4.55962 2.57175C4.24079 2.89055 3.98787 3.26904 3.81531 3.6856C3.64276 4.10215 3.55394 4.54862 3.55394 4.9995C3.55394 5.45038 3.64276 5.89685 3.81531 6.31341C3.98787 6.72996 4.24079 7.10845 4.55962 7.42725C4.62819 7.49584 4.67489 7.58323 4.6938 7.67835C4.71272 7.77348 4.70301 7.87207 4.66589 7.96168C4.62878 8.05129 4.56593 8.12788 4.4853 8.18177C4.40466 8.23566 4.30986 8.26444 4.21287 8.26446Z" fill="#5692D1"/>
<path d="M11.4956 9.99795C11.3986 9.99793 11.3038 9.96916 11.2232 9.91526C11.1425 9.86137 11.0797 9.78478 11.0426 9.69517C11.0055 9.60557 10.9958 9.50697 11.0147 9.41184C11.0336 9.31672 11.0803 9.22934 11.1489 9.16075C12.2525 8.05702 12.8725 6.56009 12.8725 4.99924C12.8725 3.43838 12.2525 1.94145 11.1489 0.837725C11.0568 0.745695 11.0051 0.620877 11.0051 0.490728C11.0051 0.360579 11.0568 0.23576 11.1489 0.143731C11.2409 0.0517015 11.3657 0 11.4959 0C11.626 0 11.7508 0.0517015 11.8429 0.143731C12.4805 0.781341 12.9864 1.53832 13.3315 2.37143C13.6766 3.20454 13.8542 4.09747 13.8542 4.99924C13.8542 5.901 13.6766 6.79393 13.3315 7.62704C12.9864 8.46016 12.4805 9.21713 11.8429 9.85474C11.7973 9.90041 11.7432 9.93658 11.6836 9.96117C11.624 9.98575 11.5601 9.99826 11.4956 9.99795Z" fill="#5692D1"/>
<path d="M2.47921 9.99795C2.41473 9.99826 2.35083 9.98575 2.29123 9.96117C2.23162 9.93658 2.17748 9.90041 2.13197 9.85474C1.49429 9.21713 0.988455 8.46016 0.643344 7.62704C0.298233 6.79393 0.120605 5.901 0.120605 4.99924C0.120605 4.09747 0.298233 3.20454 0.643344 2.37143C0.988455 1.53832 1.49429 0.781341 2.13197 0.143731C2.224 0.0517015 2.34881 0 2.47896 0C2.60911 0 2.73393 0.0517015 2.82596 0.143731C2.91799 0.23576 2.96969 0.360579 2.96969 0.490728C2.96969 0.620877 2.91799 0.745695 2.82596 0.837725C1.72231 1.94145 1.10229 3.43838 1.10229 4.99924C1.10229 6.56009 1.72231 8.05702 2.82596 9.16075C2.89453 9.22934 2.94122 9.31672 2.96014 9.41184C2.97906 9.50697 2.96934 9.60557 2.93223 9.69517C2.89512 9.78478 2.83227 9.86137 2.75164 9.91526C2.671 9.96916 2.5762 9.99793 2.47921 9.99795Z" fill="#5692D1"/>
<circle cx="6.98744" cy="4.99672" r="1.66664" fill="#5692D1"/>
</svg>
