<svg width="18" height="18" viewBox="0 0 18 18" fill="none" xmlns="http://www.w3.org/2000/svg">
    <path d="M18 9C18 4.02944 13.9705 0 9 0C4.02944 0 0 4.02944 0 9C0 13.9705 4.02944 18 9 18C13.9705 18 18 13.9705 18 9Z" fill="#F5F4F4"/>
    <path d="M12.1073 12.67C11.9982 12.67 11.8915 12.6376 11.8008 12.5769C11.7101 12.5163 11.6394 12.4301 11.5977 12.3293C11.5559 12.2285 11.545 12.1176 11.5663 12.0106C11.5875 11.9036 11.6401 11.8052 11.7172 11.7281C12.0759 11.3695 12.3604 10.9436 12.5545 10.475C12.7487 10.0064 12.8486 9.50408 12.8486 8.99689C12.8486 8.48962 12.7487 7.98735 12.5545 7.51872C12.3604 7.05009 12.0759 6.6243 11.7172 6.26565C11.6167 6.16158 11.5611 6.0222 11.5623 5.87753C11.5636 5.73286 11.6217 5.59448 11.7239 5.49217C11.8262 5.38987 11.9646 5.33185 12.1093 5.33059C12.2539 5.32933 12.3933 5.38495 12.4974 5.48545C12.9585 5.94657 13.3244 6.49401 13.5738 7.0965C13.8234 7.69899 13.9518 8.34472 13.9518 8.99689C13.9518 9.64898 13.8234 10.2948 13.5738 10.8972C13.3244 11.4997 12.9585 12.0472 12.4974 12.5083C12.4463 12.5597 12.3855 12.6005 12.3186 12.6282C12.2516 12.656 12.1798 12.6701 12.1073 12.67Z" fill="#5692D1"/>
    <path d="M5.8646 12.6725C5.71828 12.6725 5.57796 12.6143 5.47451 12.5108C5.01338 12.0497 4.64759 11.5023 4.39803 10.8998C4.14847 10.2973 4.02002 9.6516 4.02002 8.99943C4.02002 8.34734 4.14847 7.70157 4.39803 7.09908C4.64759 6.49659 5.01338 5.94915 5.47451 5.48803C5.5254 5.43533 5.58629 5.3933 5.65361 5.36437C5.72093 5.33546 5.79332 5.32024 5.86659 5.3196C5.93985 5.31897 6.01251 5.33293 6.08032 5.36067C6.14812 5.38842 6.20973 5.42939 6.26154 5.48119C6.31334 5.533 6.35431 5.59461 6.38205 5.66241C6.4098 5.73022 6.42376 5.80288 6.42312 5.87614C6.42249 5.9494 6.40727 6.0218 6.37834 6.08912C6.34943 6.15644 6.3074 6.21733 6.2547 6.26823C5.89601 6.62688 5.61147 7.05267 5.41734 7.5213C5.22323 7.98993 5.12331 8.49224 5.12331 8.99943C5.12331 9.5067 5.22323 10.009 5.41734 10.4776C5.61147 10.9462 5.89601 11.372 6.2547 11.7307C6.33183 11.8078 6.38437 11.9061 6.40565 12.0131C6.42693 12.1201 6.41601 12.2311 6.37425 12.3319C6.3325 12.4327 6.26179 12.5188 6.17109 12.5795C6.08037 12.6401 5.97372 12.6725 5.8646 12.6725Z" fill="#5692D1"/>
    <path d="M14.0574 14.6227C13.9483 14.6227 13.8416 14.5903 13.751 14.5297C13.6602 14.4691 13.5896 14.3829 13.5478 14.2821C13.5061 14.1813 13.4951 14.0704 13.5164 13.9633C13.5377 13.8563 13.5902 13.758 13.6674 13.6808C14.909 12.4391 15.6065 10.7551 15.6065 8.99918C15.6065 7.24317 14.909 5.55913 13.6674 4.31744C13.5638 4.21391 13.5056 4.07349 13.5056 3.92707C13.5056 3.78065 13.5638 3.64023 13.6674 3.5367C13.7709 3.43316 13.9113 3.375 14.0578 3.375C14.2041 3.375 14.3445 3.43316 14.4482 3.5367C15.1655 4.25401 15.7346 5.10561 16.1228 6.04286C16.511 6.9801 16.7108 7.98465 16.7108 8.99918C16.7108 10.0136 16.511 11.0182 16.1228 11.9554C15.7346 12.8927 15.1655 13.7443 14.4482 14.4616C14.3969 14.513 14.336 14.5537 14.2689 14.5813C14.2019 14.609 14.13 14.623 14.0574 14.6227Z" fill="#5692D1"/>
    <path d="M3.91417 14.6227C3.84163 14.623 3.76975 14.609 3.7027 14.5813C3.63564 14.5537 3.57472 14.513 3.52353 14.4616C2.80614 13.7443 2.23708 12.8927 1.84883 11.9554C1.46057 11.0182 1.26074 10.0136 1.26074 8.99918C1.26074 7.98465 1.46057 6.9801 1.84883 6.04286C2.23708 5.10561 2.80614 4.25401 3.52353 3.5367C3.62706 3.43316 3.76747 3.375 3.91389 3.375C4.06031 3.375 4.20073 3.43316 4.30426 3.5367C4.4078 3.64023 4.46596 3.78065 4.46596 3.92707C4.46596 4.07349 4.4078 4.21391 4.30426 4.31744C3.06266 5.55913 2.36514 7.24317 2.36514 8.99918C2.36514 10.7551 3.06266 12.4391 4.30426 13.6808C4.38141 13.758 4.43394 13.8563 4.45522 13.9633C4.47651 14.0704 4.46557 14.1813 4.42382 14.2821C4.38207 14.3829 4.31137 14.4691 4.22066 14.5297C4.12994 14.5903 4.02328 14.6227 3.91417 14.6227Z" fill="#5692D1"/>
    <path d="M8.98579 10.8713C10.0214 10.8713 10.8608 10.0318 10.8608 8.99632C10.8608 7.96079 10.0214 7.12134 8.98579 7.12134C7.95029 7.12134 7.11084 7.96079 7.11084 8.99632C7.11084 10.0318 7.95029 10.8713 8.98579 10.8713Z" fill="#5692D1"/>
</svg>
